<svg width="800" height="800" viewBox="0 0 800 800" fill="none" xmlns="http://www.w3.org/2000/svg">
<path d="M800 400C800 620.914 620.914 800 400 800C179.086 800 -0.000175741 620.914 -0.000175741 400C-0.000175741 179.086 179.086 -5.66162e-05 400 -5.66162e-05C620.914 -5.66162e-05 800 179.086 800 400Z" fill="black"/>
<path d="M352.411 382.173C343.456 412.31 352.776 442.681 376.289 459.948C408.605 483.694 454.412 468.743 463.824 430.779C466.26 420.899 466.961 409.613 464.646 399.821C457.641 370.476 448.808 341.541 440.524 311.99C400.016 316.505 363.071 346.349 352.411 382.173ZM521.388 373.759C529.703 403.427 530.068 432.89 517.52 461.707C483.164 540.567 373.731 553.759 317.324 485.922C277.669 438.225 278.339 369.802 319.152 317.824C342.908 287.57 374.096 267.782 411.985 257.609L423.529 254.56C420.97 242.394 417.803 230.639 416.128 218.678C410.767 180.068 431.722 145.3 469.245 129.557C506.586 113.873 551.723 123.225 576.759 151.837C589.125 165.879 588.79 183.498 575.998 194.756C563.449 205.808 545.662 204.899 532.292 192.117C524.769 184.906 516.758 179.218 505.581 179.336C489.59 179.511 475.519 191.59 476.798 206.805C477.925 220.525 482.068 234.068 485.936 247.437C486.606 249.723 492.514 251.394 496.23 251.922C536.86 257.697 572.495 273.352 601.978 301.056C679.887 374.14 689.116 492.518 622.445 577.799C575.876 637.369 512.494 670.672 435.833 677.737C295.09 690.636 171.952 603.567 140.398 470.824C111.616 349.339 182.429 219.645 302.887 173.296C320.735 166.437 337.7 172.388 344.644 187.896C351.71 203.639 344.066 219.733 326.065 227.472C253.943 258.547 209.81 311.17 197.688 386.482C181.454 487.124 248.125 585.128 349.974 612.802C432.909 635.375 522.302 607.935 572.556 544.496C620.861 483.518 615.196 395.013 559.551 343.007C544.115 328.532 524.949 318.281 504.027 313.31C510.058 334.3 515.875 354 521.388 373.759Z" fill="white"/>
</svg>
