<svg width="800" height="800" viewBox="0 0 800 800" fill="none" xmlns="http://www.w3.org/2000/svg">
<path d="M549.566 36.3558C512.768 46.9802 476.237 59.1983 438.906 67.9634C396.705 77.829 353.458 82.5559 310.114 82.0407C297.189 81.6891 284.257 82.3998 271.45 84.1656C267.604 84.5909 263.935 86.0013 260.799 88.2593C257.664 90.5172 255.169 93.5457 253.558 97.0497C251.947 100.554 251.274 104.414 251.606 108.254C251.938 112.093 253.262 115.782 255.451 118.961C275.716 155.083 296.782 190.41 317.58 225.204C335.179 256.015 352.245 287.092 370.91 317.902C393.042 356.15 415.974 393.867 438.373 432.115C442.106 438.224 444.772 444.598 449.039 453.098C436.24 451.77 426.64 450.707 416.774 450.176C388.57 448.384 360.321 452.922 334.113 463.457C311.181 471.724 290.232 484.663 272.602 501.447C254.972 518.231 241.048 538.491 231.719 560.935C221.786 585.27 219.463 612.025 225.053 637.697C230.68 663.308 242.91 687.017 260.538 706.486C278.166 725.955 300.583 740.512 325.58 748.722C338.593 755.683 352.786 760.185 367.444 762.002C393.6 764.821 420.035 763.657 445.839 758.549C464.114 753.989 481.958 747.857 499.169 740.222C529.196 725.715 554.177 702.589 570.898 673.82C582.459 654.319 588.822 632.198 589.382 609.558C589.942 586.918 584.681 564.511 574.098 544.468C562.098 521.36 547.433 499.314 534.9 477.003C517.834 447.254 500.769 417.506 483.437 387.758C461.038 348.979 438.373 310.465 415.974 271.952C411.174 263.718 407.175 255.484 402.375 245.391C500.601 192.933 577.852 108.579 621.295 6.3419L624.228 8.20116C627.428 26.7939 631.161 45.1209 633.294 63.9793C633.289 67.5423 634.161 71.0521 635.835 74.2011C637.509 77.35 639.932 80.0419 642.893 82.0407C715.524 136.447 767.126 214.11 789.018 301.966C799.148 344.745 802.299 388.869 798.35 432.646C796.187 466.266 789.367 499.427 778.085 531.187C768.534 557.115 756.758 582.175 742.887 606.089C716.905 650.304 682.374 688.943 641.293 719.77C614.881 739.277 586.238 755.593 555.965 768.377C523.327 782.232 488.984 791.7 453.838 796.531C418.437 801.156 382.58 801.156 347.178 796.531C302.583 791.156 259.32 777.841 219.453 757.221C140.34 716.512 76.6897 651.245 38.131 571.294C22.4756 539.563 11.861 505.603 6.66625 470.628C2.71609 446.735 0.488313 422.592 0 398.382C0.907163 302.462 36.0717 209.997 99.1939 137.553C134.634 96.1499 178.665 62.8929 228.252 40.0743C251.8 29.6014 276.031 20.7274 300.781 13.5133C346.278 0.791058 393.824 -2.99779 440.773 2.35771C464.459 5.35886 487.897 10.0636 510.902 16.4351C521.053 18.9788 531.028 22.1728 540.766 25.997C543.788 27.5207 546.726 29.2053 549.566 31.0436V36.3558Z" fill="black"/>
</svg>
