<svg width="800" height="800" viewBox="0 0 800 800" fill="none" xmlns="http://www.w3.org/2000/svg">
<path d="M400 0C180 0 0 180 0 400C0 620 180 800 400 800C620 800 800 620 800 400C800 180 622 0 400 0ZM550 586C456 528 338 516 198 548C184 552 172 542 168 530C164 516 174 504 186 500C338 466 470 480 574 544C588 550 590 566 584 578C576 590 562 594 550 586ZM590 478C482 412 318 392 192 432C176 436 158 428 154 412C150 396 158 378 174 374C320 330 500 352 624 428C636 434 642 454 632 468C622 482 604 488 590 478ZM171.96 310C151.96 316 131.96 304 125.96 286C119.96 266 131.96 246 149.96 240C291.96 198 525.96 206 673.96 294C691.96 304 697.96 328 687.96 346C677.96 360 653.96 366 635.96 356C507.96 280 293.96 272 171.96 310Z" fill="black"/>
</svg>
